<?xml version="1.0" encoding="UTF-8" standalone="no"?>
<!-- Created with Inkscape (http://www.inkscape.org/) -->

<svg
   width="100"
   height="100"
   viewBox="0 0 26.458333 26.458333"
   version="1.1"
   id="svg1"
   xml:space="preserve"
   xmlns:inkscape="http://www.inkscape.org/namespaces/inkscape"
   xmlns:sodipodi="http://sodipodi.sourceforge.net/DTD/sodipodi-0.dtd"
   xmlns="http://www.w3.org/2000/svg"
   xmlns:svg="http://www.w3.org/2000/svg"><sodipodi:namedview
     id="namedview1"
     pagecolor="#ffffff"
     bordercolor="#000000"
     borderopacity="0.25"
     inkscape:showpageshadow="2"
     inkscape:pageopacity="0.0"
     inkscape:pagecheckerboard="0"
     inkscape:deskcolor="#d1d1d1"
     inkscape:document-units="mm"><inkscape:page
       x="0"
       y="0"
       width="26.458332"
       height="26.458332"
       id="page2"
       margin="0"
       bleed="0" /></sodipodi:namedview><defs
     id="defs1" /><g
     inkscape:label="Layer 1"
     inkscape:groupmode="layer"
     id="layer1"
     transform="translate(-0.91770176,-2.4684069)"><g
       style="fill:none"
       id="g1"
       transform="matrix(0.14437321,0,0,0.14437321,0.77332855,2.4684069)"><path
         d="m 10.9167,129.177 h 2 c -0.1042,0.958 -0.3785,1.816 -0.823,2.573 -0.4444,0.757 -1.0729,1.358 -1.8854,1.802 -0.81247,0.438 -1.82636,0.656 -3.04164,0.656 -0.88889,0 -1.69791,-0.166 -2.42708,-0.5 C 4.01736,133.375 3.39583,132.903 2.875,132.292 2.35417,131.674 1.95139,130.934 1.66667,130.073 1.38889,129.205 1.25,128.24 1.25,127.177 v -1.51 c 0,-1.063 0.13889,-2.025 0.41667,-2.886 0.28472,-0.868 0.69097,-1.611 1.21874,-2.229 0.53473,-0.618 1.17709,-1.094 1.92709,-1.427 0.75,-0.333 1.59375,-0.5 2.53124,-0.5 1.14584,0 2.11459,0.215 2.90626,0.646 0.7917,0.43 1.4062,1.028 1.8437,1.792 0.4445,0.756 0.7188,1.635 0.823,2.635 h -2 c -0.0973,-0.708 -0.2778,-1.316 -0.5417,-1.823 -0.2639,-0.514 -0.6389,-0.91 -1.12501,-1.187 -0.48611,-0.278 -1.12152,-0.417 -1.90625,-0.417 -0.67361,0 -1.26736,0.128 -1.78124,0.385 -0.50695,0.257 -0.93403,0.622 -1.28125,1.094 -0.34028,0.472 -0.59722,1.038 -0.77084,1.698 C 3.3368,124.108 3.25,124.84 3.25,125.646 v 1.531 c 0,0.743 0.07639,1.441 0.22916,2.094 0.15973,0.653 0.39931,1.226 0.71875,1.719 0.31945,0.493 0.7257,0.882 1.21875,1.166 0.49306,0.278 1.07639,0.417 1.75,0.417 0.85417,0 1.53472,-0.135 2.04167,-0.406 0.50694,-0.271 0.88887,-0.66 1.14587,-1.167 0.2638,-0.507 0.4513,-1.115 0.5625,-1.823 z m 9.9108,-0.687 v -0.24 c 0,-0.812 0.118,-1.566 0.3542,-2.26 0.2361,-0.702 0.5763,-1.309 1.0208,-1.823 0.4444,-0.521 0.9826,-0.924 1.6146,-1.209 0.6319,-0.291 1.3402,-0.437 2.125,-0.437 0.7916,0 1.5034,0.146 2.1354,0.437 0.6389,0.285 1.1805,0.688 1.625,1.209 0.4514,0.514 0.7951,1.121 1.0312,1.823 0.2361,0.694 0.3542,1.448 0.3542,2.26 v 0.24 c 0,0.812 -0.1181,1.566 -0.3542,2.26 -0.2361,0.694 -0.5798,1.302 -1.0312,1.823 -0.4445,0.514 -0.9827,0.917 -1.6146,1.208 -0.625,0.285 -1.3333,0.427 -2.125,0.427 -0.7917,0 -1.5035,-0.142 -2.1354,-0.427 -0.632,-0.291 -1.1736,-0.694 -1.625,-1.208 -0.4445,-0.521 -0.7847,-1.129 -1.0208,-1.823 -0.2362,-0.694 -0.3542,-1.448 -0.3542,-2.26 z m 1.9271,-0.24 v 0.24 c 0,0.562 0.0659,1.093 0.1979,1.593 0.1319,0.493 0.3298,0.931 0.5937,1.313 0.2709,0.382 0.6077,0.684 1.0104,0.906 0.4028,0.215 0.8716,0.323 1.4063,0.323 0.5278,0 0.9896,-0.108 1.3854,-0.323 0.4028,-0.222 0.7361,-0.524 1,-0.906 0.2639,-0.382 0.4618,-0.82 0.5938,-1.313 0.1389,-0.5 0.2083,-1.031 0.2083,-1.593 v -0.24 c 0,-0.556 -0.0694,-1.08 -0.2083,-1.573 -0.132,-0.5 -0.3334,-0.941 -0.6042,-1.323 -0.2639,-0.389 -0.5972,-0.694 -1,-0.916 -0.3958,-0.223 -0.8611,-0.334 -1.3958,-0.334 -0.5278,0 -0.9931,0.111 -1.3959,0.334 -0.3958,0.222 -0.7291,0.527 -1,0.916 -0.2639,0.382 -0.4618,0.823 -0.5937,1.323 -0.132,0.493 -0.1979,1.017 -0.1979,1.573 z M 41.405,125.135 V 134 h -1.9271 v -11.271 h 1.8229 z m -0.4584,2.803 -0.802,-0.032 c 0.0069,-0.771 0.1215,-1.482 0.3437,-2.135 0.2222,-0.66 0.5347,-1.233 0.9375,-1.719 0.4028,-0.486 0.8819,-0.861 1.4375,-1.125 0.5625,-0.271 1.184,-0.406 1.8646,-0.406 0.5555,0 1.0555,0.076 1.5,0.229 0.4444,0.146 0.8229,0.382 1.1354,0.708 0.3194,0.327 0.5625,0.75 0.7292,1.271 0.1666,0.514 0.25,1.143 0.25,1.886 V 134 H 46.405 v -7.406 c 0,-0.591 -0.0868,-1.063 -0.2604,-1.417 -0.1737,-0.361 -0.4271,-0.621 -0.7605,-0.781 -0.3333,-0.167 -0.743,-0.25 -1.2291,-0.25 -0.4792,0 -0.9167,0.101 -1.3125,0.302 -0.3889,0.201 -0.7257,0.479 -1.0104,0.833 -0.2778,0.354 -0.4966,0.761 -0.6563,1.219 -0.1528,0.451 -0.2292,0.931 -0.2292,1.438 z m 22.8588,3.072 c 0,-0.277 -0.0625,-0.534 -0.1875,-0.77 -0.1181,-0.243 -0.3646,-0.462 -0.7396,-0.657 -0.3681,-0.201 -0.9236,-0.375 -1.6667,-0.52 -0.625,-0.132 -1.1909,-0.289 -1.6979,-0.469 -0.5,-0.181 -0.9271,-0.4 -1.2812,-0.656 -0.3473,-0.257 -0.6146,-0.56 -0.8021,-0.907 -0.1875,-0.347 -0.2813,-0.753 -0.2813,-1.218 0,-0.445 0.0972,-0.865 0.2917,-1.261 0.2014,-0.396 0.4826,-0.746 0.8437,-1.052 0.3681,-0.306 0.8091,-0.545 1.323,-0.719 0.5138,-0.173 1.0868,-0.26 1.7187,-0.26 0.9028,0 1.6736,0.16 2.3125,0.479 0.6389,0.319 1.1285,0.747 1.4688,1.281 0.3402,0.528 0.5104,1.115 0.5104,1.761 h -1.9271 c 0,-0.313 -0.0938,-0.615 -0.2813,-0.907 -0.1805,-0.298 -0.4479,-0.545 -0.802,-0.739 -0.3473,-0.195 -0.7743,-0.292 -1.2813,-0.292 -0.5347,0 -0.9687,0.084 -1.3021,0.25 -0.3264,0.16 -0.5659,0.365 -0.7187,0.615 -0.1459,0.25 -0.2188,0.514 -0.2188,0.791 0,0.209 0.0347,0.396 0.1042,0.563 0.0764,0.16 0.2083,0.309 0.3958,0.448 0.1875,0.132 0.4514,0.257 0.7917,0.375 0.3403,0.118 0.7743,0.236 1.3021,0.354 0.9236,0.208 1.684,0.458 2.2812,0.75 0.5972,0.292 1.0417,0.649 1.3334,1.073 0.2916,0.424 0.4375,0.937 0.4375,1.542 0,0.493 -0.1042,0.944 -0.3125,1.354 -0.2014,0.409 -0.4966,0.764 -0.8855,1.062 -0.3819,0.292 -0.8402,0.521 -1.375,0.688 -0.5277,0.159 -1.1215,0.239 -1.7812,0.239 -0.9931,0 -1.8333,-0.177 -2.5208,-0.531 -0.6875,-0.354 -1.2084,-0.812 -1.5625,-1.375 -0.3542,-0.562 -0.5313,-1.156 -0.5313,-1.781 h 1.9375 c 0.0278,0.528 0.1806,0.948 0.4583,1.26 0.2778,0.306 0.6181,0.525 1.0209,0.657 0.4028,0.125 0.8021,0.187 1.1979,0.187 0.5278,0 0.9687,-0.069 1.3229,-0.208 0.3611,-0.139 0.6354,-0.33 0.8229,-0.573 0.1875,-0.243 0.2813,-0.521 0.2813,-0.834 z m 17.3275,0.386 v -8.667 h 1.9375 V 134 h -1.8438 z m 0.3645,-2.375 0.8021,-0.021 c 0,0.75 -0.0798,1.444 -0.2396,2.083 -0.1527,0.632 -0.4027,1.181 -0.75,1.646 -0.3472,0.465 -0.802,0.83 -1.3645,1.094 -0.5625,0.257 -1.2466,0.385 -2.0521,0.385 -0.5486,0 -1.0521,-0.08 -1.5104,-0.239 -0.4514,-0.16 -0.8403,-0.406 -1.1667,-0.74 -0.3264,-0.333 -0.5799,-0.767 -0.7604,-1.302 -0.1736,-0.535 -0.2604,-1.177 -0.2604,-1.927 v -7.271 h 1.927 v 7.292 c 0,0.507 0.0556,0.927 0.1667,1.26 0.1181,0.327 0.2743,0.587 0.4688,0.782 0.2013,0.187 0.4236,0.319 0.6666,0.395 0.25,0.077 0.507,0.115 0.7709,0.115 0.8194,0 1.4687,-0.156 1.9479,-0.469 0.4791,-0.319 0.8229,-0.746 1.0312,-1.281 0.2153,-0.542 0.3229,-1.142 0.3229,-1.802 z M 94.0749,118 v 16 h -1.9375 v -16 z m 13.7861,4.729 v 1.479 h -6.094 v -1.479 z m -4.031,-2.739 h 1.927 v 11.218 c 0,0.382 0.059,0.67 0.177,0.865 0.118,0.194 0.271,0.323 0.458,0.385 0.188,0.063 0.389,0.094 0.604,0.094 0.16,0 0.327,-0.014 0.5,-0.042 0.181,-0.034 0.316,-0.062 0.406,-0.083 l 0.011,1.573 c -0.153,0.049 -0.354,0.094 -0.604,0.135 -0.243,0.049 -0.539,0.073 -0.886,0.073 -0.472,0 -0.906,-0.093 -1.302,-0.281 -0.396,-0.187 -0.712,-0.5 -0.948,-0.937 -0.229,-0.445 -0.343,-1.042 -0.343,-1.792 z m 29.415,8.062 h -4.052 v -1.635 h 4.052 c 0.785,0 1.42,-0.125 1.906,-0.375 0.486,-0.25 0.84,-0.598 1.063,-1.042 0.229,-0.444 0.343,-0.951 0.343,-1.521 0,-0.521 -0.114,-1.01 -0.343,-1.469 -0.223,-0.458 -0.577,-0.826 -1.063,-1.104 -0.486,-0.284 -1.121,-0.427 -1.906,-0.427 h -3.583 V 134 h -2.011 v -15.167 h 5.594 c 1.146,0 2.114,0.198 2.906,0.594 0.792,0.396 1.393,0.945 1.802,1.646 0.41,0.694 0.615,1.49 0.615,2.385 0,0.973 -0.205,1.802 -0.615,2.49 -0.409,0.687 -1.01,1.212 -1.802,1.573 -0.792,0.354 -1.76,0.531 -2.906,0.531 z m 23.036,4.313 V 134 h -7.584 v -1.635 z m -7.188,-13.532 V 134 h -2.01 v -15.167 z m 23.932,10.344 h 2 c -0.104,0.958 -0.379,1.816 -0.823,2.573 -0.444,0.757 -1.073,1.358 -1.885,1.802 -0.813,0.438 -1.827,0.656 -3.042,0.656 -0.889,0 -1.698,-0.166 -2.427,-0.5 -0.722,-0.333 -1.344,-0.805 -1.865,-1.416 -0.521,-0.618 -0.923,-1.358 -1.208,-2.219 -0.278,-0.868 -0.417,-1.833 -0.417,-2.896 v -1.51 c 0,-1.063 0.139,-2.025 0.417,-2.886 0.285,-0.868 0.691,-1.611 1.219,-2.229 0.534,-0.618 1.177,-1.094 1.927,-1.427 0.75,-0.333 1.593,-0.5 2.531,-0.5 1.146,0 2.115,0.215 2.906,0.646 0.792,0.43 1.406,1.028 1.844,1.792 0.444,0.756 0.719,1.635 0.823,2.635 h -2 c -0.097,-0.708 -0.278,-1.316 -0.542,-1.823 -0.264,-0.514 -0.639,-0.91 -1.125,-1.187 -0.486,-0.278 -1.121,-0.417 -1.906,-0.417 -0.674,0 -1.267,0.128 -1.781,0.385 -0.507,0.257 -0.934,0.622 -1.282,1.094 -0.34,0.472 -0.597,1.038 -0.77,1.698 -0.174,0.66 -0.261,1.392 -0.261,2.198 v 1.531 c 0,0.743 0.077,1.441 0.229,2.094 0.16,0.653 0.4,1.226 0.719,1.719 0.32,0.493 0.726,0.882 1.219,1.166 0.493,0.278 1.076,0.417 1.75,0.417 0.854,0 1.535,-0.135 2.042,-0.406 0.506,-0.271 0.888,-0.66 1.145,-1.167 0.264,-0.507 0.452,-1.115 0.563,-1.823 z"
         fill="#082b44"
         id="path1" /><path
         opacity="0.991"
         d="m 164.529,82.4308 v 17.6452 h 3.689 V 82.4308 Z"
         fill="#217bbf"
         id="path7" /><path
         opacity="0.991"
         d="M 164.529,53.3963 V 71.632 h 3.689 V 55.2428 Z"
         fill="#217bbf"
         id="path8" /><path
         d="m 149.528,44.7362 v 49.3133 c 0,3.3806 0.434,6.0405 1.303,7.9815 0.869,1.909 2.095,3.255 3.678,4.038 1.533,0.758 3.319,1.14 5.347,1.164 v 0.007 h 0.151 c 0.015,0 0.027,0.002 0.041,0.002 0.098,0 0.197,0 0.299,-0.002 l 14.153,0.002 v -3.472 h -13.866 c -0.056,0.001 -0.112,-0.003 -0.167,-0.003 -1.272,0 -2.467,-0.235 -3.584,-0.704 -1.087,-0.501 -1.971,-1.441 -2.654,-2.819 -0.651,-1.4082 -0.977,-3.4733 -0.977,-6.1965 V 46.8852 Z"
         fill="#062943"
         id="path9" /><path
         d="m 168.223,75.3245 h -33.766 v 3.4136 h 33.766 z"
         fill="#062943"
         id="path10" /><path
         opacity="0.991"
         d="m 73.8968,106.882 c -3.1654,0 -6.098,-0.606 -8.7979,-1.816 -2.6998,-1.241 -5.0583,-2.964 -7.0755,-5.1669 -2.0171,-2.2344 -3.5998,-4.8722 -4.748,-7.9134 -1.1172,-3.0412 -1.6758,-6.3773 -1.6758,-10.0081 v -2.0482 c 0,-3.755 0.5586,-7.1686 1.6758,-10.2409 1.1482,-3.1033 2.6998,-5.7721 4.6549,-8.0065 1.9551,-2.2654 4.205,-4.0032 6.7497,-5.2135 2.5757,-1.2103 5.3222,-1.8154 8.2393,-1.8154 2.9481,0 5.6169,0.5431 8.0064,1.6292 2.3896,1.0862 4.4377,2.6068 6.1446,4.5619 1.7068,1.955 3.0102,4.2825 3.9101,6.9824 0.9,2.6998 1.3499,5.679 1.3499,8.9375 v 3.1188 H 53.9271 v -3.3982 h 34.7258 v -0.6051 c -0.031,-3.1654 -0.6827,-6.098 -1.955,-8.7978 -1.2413,-2.6999 -3.0257,-4.8722 -5.3532,-6.517 -2.3275,-1.6757 -5.1359,-2.5136 -8.4254,-2.5136 -2.6379,0 -5.0429,0.5586 -7.2152,1.6758 -2.1413,1.1171 -3.9878,2.6688 -5.5394,4.6549 -1.5517,1.9551 -2.7464,4.267 -3.5843,6.9359 -0.8379,2.6378 -1.2568,5.5083 -1.2568,8.6116 v 2.0482 c 0,2.9791 0.4655,5.7721 1.3964,8.3789 0.931,2.6067 2.2344,4.9032 3.9102,6.8893 1.6758,1.9551 3.6464,3.4912 5.9118,4.6082 2.2654,1.117 4.748,1.676 7.4479,1.676 2.9171,0 5.5859,-0.512 8.0065,-1.536 2.4205,-1.024 4.6239,-2.8242 6.61,-5.3999 l 2.4206,1.8154 c -1.1172,1.6135 -2.4672,3.0565 -4.0498,4.3295 -1.5827,1.272 -3.4602,2.281 -5.6325,3.025 -2.1413,0.745 -4.6239,1.118 -7.4479,1.118 z"
         fill="#042742"
         id="path11" /><path
         opacity="0.991"
         d="m 102.387,14.824 -3.6892,2.1296 v 90.2884 h 3.6892 z"
         fill="#062943"
         id="path12" /><path
         opacity="0.991"
         d="m 128.062,0 -3.431,1.98027 V 107.242 h 3.431 z"
         fill="#062943"
         id="path13" /><path
         opacity="0.991"
         d="m 133.069,2.896 v 51.3518 l 3.689,-2.1297 V 5.02561 Z"
         fill="#1f7abf"
         id="path14" /><path
         opacity="0.991"
         d="M 139.454,6.58118 V 50.5607 l 3.689,-2.1297 V 8.71274 Z"
         fill="#1f7abf"
         id="path15" /><path
         d="m 145.839,10.2682 v 36.6073 l 3.689,-2.1297 V 12.3979 Z"
         fill="#1f7abf"
         id="path16" /><path
         opacity="0.991"
         d="m 158.252,82.387 v 17.712 h 3.689 V 82.387 Z"
         fill="#217bbf"
         id="path17" /><path
         opacity="0.991"
         d="m 158.252,49.7713 v 21.8608 h 3.689 v -19.995 z"
         fill="#217bbf"
         id="path18" /><path
         opacity="0.991"
         d="m 170.803,82.4308 v 17.6352 h 3.691 V 82.4308 Z"
         fill="#217bbf"
         id="path19" /><path
         opacity="0.991"
         d="M 170.803,57.0175 V 71.632 h 3.691 V 58.8445 Z"
         fill="#217bbf"
         id="path20" /><path
         opacity="0.991"
         d="M 23.9023,74.0778 H 3.60675 L 3.51366,70.6797 H 20.5042 c 3.786,0 6.9824,-0.5121 9.5892,-1.5362 2.6068,-1.024 4.5773,-2.5602 5.9118,-4.6083 1.3344,-2.0792 2.0016,-4.6705 2.0016,-7.7738 0,-3.1033 -0.6827,-5.679 -2.0482,-7.7272 C 34.5932,46.986 32.545,45.4499 29.8141,44.4258 27.1142,43.4017 23.7316,42.8897 19.6663,42.8897 H 4.77051 V 107.221 H 1 V 39.445 h 18.6663 c 3.4447,0 6.5325,0.3414 9.2634,1.0241 2.7309,0.6827 5.0428,1.7534 6.9358,3.2119 1.9241,1.4275 3.3981,3.243 4.4222,5.4463 1.0241,2.2033 1.5361,4.8101 1.5361,7.8203 0,2.793 -0.5586,5.3066 -1.6758,7.541 -1.1171,2.2344 -2.7308,4.0653 -4.8411,5.4928 -2.0792,1.3965 -4.6239,2.2499 -7.6341,2.5603 z M 23.4368,107.221 H 2.81542 l 1.62923,-3.445 H 23.4368 c 3.6309,0 6.7342,-0.605 9.3099,-1.815 2.6068,-1.241 4.6084,-2.9948 6.0049,-5.2602 1.4275,-2.2964 2.1412,-5.0428 2.1412,-8.2392 0,-2.5758 -0.6206,-4.9498 -1.8619,-7.1221 -1.2413,-2.2033 -3.1188,-3.9567 -5.6325,-5.2601 -2.5137,-1.3344 -5.679,-2.0016 -9.4961,-2.0016 H 12.5442 l 0.0932,-3.3981 h 16.3388 l 0.512,1.2103 c 2.9482,0.3413 5.5549,1.2878 7.8204,2.8395 2.2964,1.5516 4.0963,3.5222 5.3997,5.9118 1.3034,2.3585 1.9551,4.9342 1.9551,7.7272 0,4.0653 -0.9,7.4944 -2.6999,10.2874 -1.7999,2.7931 -4.2981,4.9191 -7.4945,6.3771 -3.1653,1.459 -6.8427,2.188 -11.0322,2.188 z"
         fill="#042742"
         id="path21" /><path
         opacity="0.991"
         d="m 170.803,75.3228 v 3.4154 h 3.691 v -3.4154 z"
         fill="#f2b817"
         id="path22" /></g></g></svg>
