<?xml version="1.0" encoding="UTF-8" standalone="no"?>
<!-- Created with Inkscape (http://www.inkscape.org/) -->

<svg
   width="48"
   height="48"
   viewBox="0 0 12.7 12.7"
   version="1.1"
   id="svg1"
   xml:space="preserve"
   xmlns="http://www.w3.org/2000/svg"
   xmlns:svg="http://www.w3.org/2000/svg"><defs
     id="defs1" /><g
     id="layer1"
     transform="translate(-0.91770176,-2.4684069)"><g
       style="fill:none"
       id="g1"
       transform="matrix(0.14437321,0,0,0.14437321,0.77332855,2.4684069)"><g
         id="g2"
         transform="translate(1.1552658,2.6000536)"><path
           opacity="0.991"
           d="m 81.909338,55.672465 v 8.751793 h 1.829696 v -8.751793 z"
           fill="#217bbf"
           id="path7"
           style="stroke-width:0.495987" /><path
           opacity="0.991"
           d="m 81.909338,41.271726 v 9.044673 h 1.829696 v -8.128832 z"
           fill="#217bbf"
           id="path8"
           style="stroke-width:0.495987" /><path
           d="m 74.469042,36.976428 v 24.458764 c 0,1.676734 0.215247,2.99601 0.64626,3.958721 0.431014,0.94684 1.039104,1.614438 1.824248,2.002796 0.760346,0.375959 1.64618,0.565425 2.652043,0.577329 v 0.0034 h 0.07488 c 0.0071,0 0.01344,9.92e-4 0.0204,9.92e-4 0.04858,0 0.09775,0 0.148294,-9.92e-4 l 7.019707,9.92e-4 v -1.722068 h -6.877357 c -0.02783,4.97e-4 -0.05554,-0.0015 -0.08278,-0.0015 -0.630896,0 -1.223598,-0.116561 -1.777623,-0.349174 -0.539132,-0.24849 -0.977586,-0.714718 -1.316352,-1.398187 -0.322883,-0.69845 -0.484572,-1.722713 -0.484572,-3.073386 v -23.39181 z"
           fill="#062943"
           id="path9"
           style="stroke-width:0.495987" /><path
           d="M 83.74151,52.147832 H 66.994019 v 1.693102 H 83.74151 Z"
           fill="#062943"
           id="path10"
           style="stroke-width:0.495987" /><path
           opacity="0.991"
           d="m 36.956933,67.799947 c -1.569998,0 -3.02453,-0.300568 -4.363646,-0.900713 -1.339065,-0.615521 -2.508851,-1.470107 -3.509357,-2.562717 -1.000455,-1.108233 -1.785454,-2.416547 -2.354946,-3.924944 -0.554117,-1.508396 -0.831176,-3.163058 -0.831176,-4.963889 v -1.015881 c 0,-1.862431 0.277059,-3.555533 0.831176,-5.079355 0.569492,-1.539196 1.339065,-2.862886 2.308771,-3.971121 0.969704,-1.123609 2.085625,-1.985535 3.347763,-2.585829 1.277515,-0.600293 2.639743,-0.900415 4.086588,-0.900415 1.462219,0 2.78591,0.269371 3.971071,0.808063 1.185211,0.538741 2.201042,1.292939 3.047643,2.262644 0.846551,0.969654 1.49302,2.124064 1.939359,3.46318 0.446388,1.339067 0.669532,2.816712 0.669532,4.432885 V 54.40874 H 27.052218 v -1.685463 h 17.223551 v -0.300122 c -0.01538,-1.569998 -0.33861,-3.02453 -0.969655,-4.363597 -0.615669,-1.339115 -1.500708,-2.416547 -2.655119,-3.232348 -1.154409,-0.831125 -2.54734,-1.246713 -4.178889,-1.246713 -1.308365,0 -2.501214,0.277059 -3.578647,0.831176 -1.062058,0.554067 -1.977897,1.32369 -2.747471,2.30877 -0.769624,0.969705 -1.362179,2.116378 -1.777767,3.440117 -0.415587,1.308315 -0.623356,2.732047 -0.623356,4.271243 v 1.015881 c 0,1.477596 0.230882,2.862887 0.692596,4.155827 0.461764,1.29289 1.108233,2.431924 1.939409,3.417005 0.831175,0.969704 1.808568,1.73159 2.932177,2.285607 1.123608,0.554018 2.354946,0.831274 3.694063,0.831274 1.446843,0 2.770534,-0.253945 3.97112,-0.761836 1.200537,-0.507891 2.293395,-1.400767 3.278476,-2.678281 l 1.200586,0.900415 c -0.554117,0.800275 -1.223699,1.515985 -2.008649,2.147377 -0.784999,0.630896 -1.716215,1.131347 -2.793648,1.500361 -1.062057,0.36951 -2.293394,0.554514 -3.694062,0.554514 z"
           fill="#042742"
           id="path11"
           style="stroke-width:0.495987" /><path
           opacity="0.991"
           d="m 51.087706,22.140361 -1.829796,1.056255 v 44.781885 h 1.829796 z"
           fill="#062943"
           id="path12"
           style="stroke-width:0.495987" /><path
           opacity="0.991"
           d="m 63.822171,14.787849 -1.701731,0.982188 v 52.208464 h 1.701731 z"
           fill="#062943"
           id="path13"
           style="stroke-width:0.495987" /><path
           opacity="0.991"
           d="m 66.305579,16.224227 v 25.469832 l 1.829696,-1.056303 v -23.35727 z"
           fill="#1f7abf"
           id="path14"
           style="stroke-width:0.495987" /><path
           opacity="0.991"
           d="m 69.472463,18.052029 v 21.813277 l 1.829695,-1.056304 V 19.109255 Z"
           fill="#1f7abf"
           id="path15"
           style="stroke-width:0.495987" /><path
           d="m 72.639335,19.880743 v 18.156751 l 1.829707,-1.056305 V 20.937047 Z"
           fill="#1f7abf"
           id="path16"
           style="stroke-width:0.495987" /><path
           opacity="0.991"
           d="m 78.796025,55.650741 v 8.784925 h 1.829695 v -8.784925 z"
           fill="#217bbf"
           id="path17"
           style="stroke-width:0.495987" /><path
           opacity="0.991"
           d="M 78.796025,39.473773 V 50.316449 H 80.62572 V 40.399186 Z"
           fill="#217bbf"
           id="path18"
           style="stroke-width:0.495987" /><path
           opacity="0.991"
           d="m 85.021166,55.672465 v 8.746833 h 1.830686 v -8.746833 z"
           fill="#217bbf"
           id="path19"
           style="stroke-width:0.495987" /><path
           opacity="0.991"
           d="m 85.021166,43.067795 v 7.248604 h 1.830686 v -6.342435 z"
           fill="#217bbf"
           id="path20"
           style="stroke-width:0.495987" /><path
           opacity="0.991"
           d="M 12.160304,51.529485 H 2.0939711 l -0.046177,-1.685414 h 8.4270899 c 1.877809,0 3.463182,-0.253995 4.75612,-0.761935 1.29294,-0.507891 2.270283,-1.269827 2.932178,-2.285658 0.661844,-1.031256 0.992768,-2.316509 0.992768,-3.855705 0,-1.539197 -0.338611,-2.816712 -1.015881,-3.832591 -0.677221,-1.015881 -1.693102,-1.777767 -3.047593,-2.285708 -1.339117,-0.50794 -3.016842,-0.761886 -5.033179,-0.761886 H 2.6711765 V 67.968086 H 0.80105171 V 34.352061 H 10.059297 c 1.708527,0 3.240036,0.169331 4.594528,0.50794 1.354491,0.338611 2.501163,0.869664 3.440067,1.593062 0.954329,0.708022 1.685414,1.608486 2.193354,2.701294 0.507941,1.092809 0.761886,2.385748 0.761886,3.878769 0,1.385292 -0.277058,2.632005 -0.831175,3.740239 -0.554067,1.108234 -1.354441,2.016337 -2.401123,2.724358 -1.031257,0.692646 -2.293395,1.115921 -3.786416,1.269876 z M 11.929422,67.968086 H 1.7014817 L 2.5095584,66.25941 h 9.4198636 c 1.800879,0 3.340076,-0.300072 4.61759,-0.900216 1.292939,-0.61552 2.285707,-1.485383 2.978353,-2.608992 0.708022,-1.138985 1.062008,-2.501163 1.062008,-4.086537 0,-1.277564 -0.307809,-2.455037 -0.923478,-3.53247 -0.615669,-1.092809 -1.546885,-1.962473 -2.793648,-2.608942 -1.246763,-0.661846 -2.816711,-0.992768 -4.709943,-0.992768 H 6.5268315 l 0.046224,-1.685414 h 8.1038355 l 0.253945,0.600293 c 1.462268,0.16928 2.755158,0.638732 3.878817,1.408356 1.138985,0.769573 2.031713,1.746966 2.678182,2.932177 0.64647,1.169786 0.969705,2.447299 0.969705,3.832592 0,2.016336 -0.446388,3.717126 -1.339116,5.102417 -0.892727,1.385343 -2.131802,2.439811 -3.717175,3.162961 -1.569949,0.723645 -3.393892,1.085219 -5.471829,1.085219 z"
           fill="#042742"
           id="path21"
           style="stroke-width:0.495987" /><path
           opacity="0.991"
           d="m 85.021166,52.146989 v 1.693994 h 1.830686 v -1.693994 z"
           fill="#f2b817"
           id="path22"
           style="stroke-width:0.495987" /></g></g></g></svg>
