<svg width="326" height="201" viewBox="0 0 326 201" fill="none" xmlns="http://www.w3.org/2000/svg">
<path opacity="0.991" d="M306.495 154.497V187.568H313.409V154.497H306.495Z" fill="#217BBF"/>
<path opacity="0.991" d="M306.495 100.079V134.257H313.409V103.539L306.495 100.079Z" fill="#217BBF"/>
<path d="M278.379 83.8475V176.274C278.379 182.61 279.193 187.595 280.822 191.233C282.45 194.811 284.748 197.334 287.714 198.801C290.588 200.222 293.935 200.938 297.737 200.982V200.996H298.02C298.048 200.996 298.069 201 298.096 201C298.28 201 298.466 201 298.656 200.996L325.183 201V194.493H299.194C299.091 194.494 298.986 194.486 298.882 194.486C296.497 194.486 294.258 194.046 292.164 193.166C290.128 192.228 288.47 190.466 287.191 187.884C285.969 185.244 285.359 181.374 285.359 176.27V87.8753L278.379 83.8475Z" fill="#062943"/>
<path d="M313.42 141.178H250.134V147.576H313.42V141.178Z" fill="#062943"/>
<path opacity="0.991" d="M136.628 200.324C130.695 200.324 125.198 199.19 120.138 196.922C115.078 194.595 110.658 191.367 106.877 187.237C103.096 183.049 100.13 178.105 97.9777 172.405C95.8838 166.705 94.8369 160.453 94.8369 153.648V149.809C94.8369 142.771 95.8838 136.373 97.9777 130.615C100.13 124.798 103.038 119.796 106.702 115.608C110.367 111.362 114.584 108.105 119.353 105.837C124.181 103.568 129.328 102.434 134.796 102.434C140.321 102.434 145.323 103.452 149.802 105.488C154.28 107.524 158.119 110.374 161.318 114.038C164.517 117.702 166.96 122.065 168.647 127.125C170.334 132.185 171.177 137.769 171.177 143.876V149.721H99.1992V143.353H164.285V142.218C164.226 136.286 163.005 130.789 160.62 125.729C158.294 120.669 154.949 116.597 150.587 113.514C146.225 110.374 140.961 108.803 134.796 108.803C129.852 108.803 125.344 109.85 121.272 111.944C117.259 114.038 113.798 116.946 110.89 120.669C107.982 124.333 105.743 128.666 104.172 133.668C102.602 138.612 101.817 143.992 101.817 149.809V153.648C101.817 159.231 102.689 164.466 104.434 169.352C106.179 174.238 108.622 178.542 111.763 182.264C114.903 185.929 118.597 188.808 122.843 190.902C127.089 192.995 131.742 194.042 136.802 194.042C142.27 194.042 147.272 193.083 151.808 191.163C156.345 189.244 160.475 185.87 164.197 181.043L168.734 184.445C166.64 187.47 164.11 190.174 161.144 192.559C158.177 194.944 154.659 196.834 150.587 198.23C146.574 199.626 141.921 200.324 136.628 200.324Z" fill="#042742"/>
<path opacity="0.991" d="M190.025 27.7842L183.11 31.7756V201H190.025V27.7842Z" fill="#062943"/>
<path opacity="0.991" d="M238.149 0L231.719 3.71155V201H238.149V0Z" fill="#062943"/>
<path opacity="0.991" d="M247.531 5.42786V101.675L254.446 97.6831V9.41932L247.531 5.42786Z" fill="#1F7ABF"/>
<path opacity="0.991" d="M259.499 12.3348V94.764L266.413 90.7725V16.3299L259.499 12.3348Z" fill="#1F7ABF"/>
<path d="M271.466 19.2454V87.857L278.38 83.8655V23.2369L271.466 19.2454Z" fill="#1F7ABF"/>
<path opacity="0.991" d="M294.731 154.415V187.612H301.646V154.415H294.731Z" fill="#217BBF"/>
<path opacity="0.991" d="M294.731 93.2845V134.257H301.646V96.7816L294.731 93.2845Z" fill="#217BBF"/>
<path opacity="0.991" d="M318.255 154.497V187.55H325.173V154.497H318.255Z" fill="#217BBF"/>
<path opacity="0.991" d="M318.255 106.866V134.257H325.173V110.29L318.255 106.866Z" fill="#217BBF"/>
<path opacity="0.991" d="M42.925 138.841H4.88574L4.71126 132.472H36.556C43.652 132.472 49.6429 131.513 54.5287 129.593C59.4144 127.674 63.1078 124.795 65.6089 120.956C68.1099 117.059 69.3605 112.202 69.3605 106.386C69.3605 100.569 68.0808 95.7419 65.5216 91.903C62.9624 88.0642 59.1236 85.1851 54.0052 83.2657C48.9449 81.3463 42.6051 80.3866 34.9856 80.3866H7.06694V200.96H0V73.9304H34.9856C41.4418 73.9304 47.2291 74.5702 52.3475 75.8498C57.466 77.1294 61.7991 79.1361 65.3471 81.8698C68.9533 84.5453 71.7161 87.9479 73.6355 92.0775C75.5549 96.2072 76.5146 101.093 76.5146 106.735C76.5146 111.97 75.4677 116.681 73.3738 120.869C71.2799 125.056 68.2554 128.488 64.3002 131.164C60.4032 133.781 55.6338 135.381 49.9919 135.962L42.925 138.841ZM42.0525 200.96H3.40257L6.45617 194.504H42.0525C48.8577 194.504 54.6741 193.37 59.5017 191.102C64.3874 188.775 68.139 185.489 70.7564 181.243C73.4319 176.939 74.7697 171.791 74.7697 165.8C74.7697 160.973 73.6064 156.523 71.2799 152.452C68.9533 148.322 65.4344 145.036 60.7231 142.593C56.0118 140.092 50.0791 138.841 42.925 138.841H21.6369L21.8115 132.472H52.4348L53.3945 134.741C58.92 135.381 63.8058 137.155 68.0518 140.063C72.3559 142.971 75.7294 146.664 78.1723 151.143C80.6152 155.563 81.8366 160.391 81.8366 165.626C81.8366 173.245 80.1499 179.672 76.7764 184.907C73.4029 190.142 68.7207 194.126 62.7298 196.86C56.797 199.594 49.9046 200.96 42.0525 200.96Z" fill="#042742"/>
<path opacity="0.991" d="M318.255 141.175V147.576H325.173V141.175H318.255Z" fill="#F2B817"/>
</svg>
